<?xml version="1.0" encoding="UTF-8" standalone="no"?>
<svg
   xmlns:dc="http://purl.org/dc/elements/1.1/"
   xmlns:cc="http://creativecommons.org/ns#"
   xmlns:rdf="http://www.w3.org/1999/02/22-rdf-syntax-ns#"
   xmlns:svg="http://www.w3.org/2000/svg"
   xmlns="http://www.w3.org/2000/svg"
   xmlns:sodipodi="http://sodipodi.sourceforge.net/DTD/sodipodi-0.dtd"
   xmlns:inkscape="http://www.inkscape.org/namespaces/inkscape"
   width="60mm"
   height="60mm"
   viewBox="0 0 60 60"
   version="1.1"
   id="svg98"
   inkscape:version="1.0.1 (3bc2e813f5, 2020-09-07)"
   sodipodi:docname="TrollslateLogo.svg">
  <style
     id="style176"></style>
  <defs
     id="defs92">
    <inkscape:path-effect
       effect="perspective-envelope"
       up_left_point="74.44,36.551429"
       up_right_point="139.22,36.551429"
       down_left_point="72.242678,112.41824"
       down_right_point="131.5178,112.41824"
       id="path-effect278"
       is_visible="true"
       lpeversion="1"
       deform_type="envelope_deformation"
       horizontal_mirror="false"
       vertical_mirror="false"
       overflow_perspective="false" />
    <inkscape:path-effect
       effect="perspective-envelope"
       up_left_point="100.19,28.31"
       up_right_point="142.92,42.65"
       down_left_point="63.14,112.72"
       down_right_point="127.22,120.52"
       id="path-effect174"
       is_visible="true"
       lpeversion="1"
       deform_type="perspective"
       horizontal_mirror="false"
       vertical_mirror="false"
       overflow_perspective="false" />
  </defs>
  <sodipodi:namedview
     id="base"
     pagecolor="#ffffff"
     bordercolor="#666666"
     borderopacity="1.0"
     inkscape:pageopacity="0.0"
     inkscape:pageshadow="2"
     inkscape:zoom="2.0918135"
     inkscape:cx="77.361847"
     inkscape:cy="125.51185"
     inkscape:document-units="mm"
     inkscape:current-layer="g136"
     inkscape:document-rotation="0"
     showgrid="false"
     inkscape:window-width="1920"
     inkscape:window-height="1015"
     inkscape:window-x="0"
     inkscape:window-y="0"
     inkscape:window-maximized="1" />
  <metadata
     id="metadata95">
    <rdf:RDF>
      <cc:Work
         rdf:about="">
        <dc:format>image/svg+xml</dc:format>
        <dc:type
           rdf:resource="http://purl.org/dc/dcmitype/StillImage" />
        <dc:title></dc:title>
      </cc:Work>
    </rdf:RDF>
  </metadata>
  <g
     inkscape:label="Calque 1"
     inkscape:groupmode="layer"
     id="layer1">
    <g
       id="g136"
       transform="matrix(0.47921872,0.03493236,-0.07133724,0.25202631,-3.0215487,16.133771)"
       style="stroke-width:2.84824">
      <path
         id="path26"
         style="fill:#000000;stroke-width:2.84824"
         d="m 60.985657,-52.62547 c -3.502171,0.639872 -6.432739,5.136749 -8.360579,13.545455 -2.209089,9.635457 -2.953347,26.049631 -2.010709,44.3545971 0.145891,2.8329118 0.209159,5.2852119 0.140137,5.4512029 -0.06898,0.165994 -0.768652,0.608144 -1.554444,0.983309 -6.539272,3.122113 -13.203012,8.376437 -17.414477,13.726973 -6.883271,8.744999 -9.295305,19.708172 -6.598423,29.992073 1.212166,4.622306 2.704765,7.81126 5.388267,11.512259 4.375743,6.034893 9.098835,9.769893 16.669305,13.184786 3.989004,1.799357 8.378415,3.111208 13.145141,3.948874 L 61.726942,73.189248 C 61.084121,73.101404 60.429059,73.015789 59.84171,72.916526 45.880579,70.560201 33.898736,62.553923 30.943771,53.607341 30.337774,51.772602 30.113909,48.814003 30.427952,46.80269 c 0.331538,-2.12343 1.678464,-5.782863 2.944262,-7.998942 2.243552,-3.927881 6.926854,-8.822384 11.566442,-12.08479 2.362968,-1.661562 6.716352,-4.156008 6.874087,-3.939201 0.0571,0.07849 0.344874,2.440037 0.639659,5.249135 0.294784,2.809099 1.149195,9.565028 1.898296,15.011611 1.25241,9.106042 1.407327,10.00628 1.925366,11.176547 1.762921,3.982465 4.912594,3.484689 5.242977,-0.827673 0.110052,-1.436373 -0.0749,-3.099768 -1.388064,-12.507763 -0.833093,-5.968625 -1.726548,-13.053286 -1.985381,-15.743473 -0.428914,-4.458025 -0.435404,-4.911897 -0.07675,-5.119895 1.304977,-0.75686 6.38613,-1.994202 12.567918,-3.05983 l 7.108965,-1.224473 0.526624,-1.502435 c 0.446616,-1.272414 0.493539,-1.811052 0.310506,-3.536887 C 78.328189,8.2928793 77.567105,6.6102096 76.225587,5.4842906 75.452771,4.8356085 75.108565,4.8447818 69.615179,5.6193825 66.427785,6.0690551 62.297225,6.8787336 60.436391,7.4203654 58.575553,7.9619482 56.988543,8.3168687 56.910327,8.2093307 56.832117,8.1017825 56.668382,5.3656045 56.545849,2.1276483 55.458594,-26.607016 58.919366,-44.660122 64.791865,-40.8886 c 1.358866,0.872709 3.77506,4.16541 5.56055,7.577366 2.507692,4.792022 2.362373,3.764343 1.732313,12.210287 -0.605059,8.110831 -0.528683,9.841098 0.533949,12.0044033 0.830954,1.691699 1.824803,2.31432 3.085582,1.931689 1.292897,-0.392386 1.742732,-1.415484 2.030274,-4.6175253 0.114425,-1.274362 0.284125,-2.165216 0.376776,-1.978517 0.09262,0.186722 1.047737,3.443648 2.122828,7.2355313 1.548457,5.461437 3.000021,11.1791172 4.349004,17.1216207 l 2.707392,2.228525 -0.671749,7.301386 c 0.796694,3.966876 1.550298,8.018688 2.256876,12.148198 l 0.8331,-10.485487 0.966908,-11.433954 c -2.15793,-9.82900672 -4.550966,-19.0326297 -7.056819,-27.012706 -0.536596,-1.708812 -0.950527,-3.177831 -0.919764,-3.265419 0.0308,-0.08758 0.691758,0.18749 1.468979,0.612073 2.251764,1.230118 3.585304,0.664783 4.197203,-1.780037 0.546813,-2.184739 -0.09698,-5.68008 -1.345668,-7.306033 -0.335933,-0.437432 -2.6375,-1.863934 -5.114628,-3.170215 l -4.504121,-2.375388 -0.990141,-2.137095 c -5.474581,-11.81406 -10.922258,-17.368247 -15.42505,-16.54556 z m 29.690011,62.98038 c 0.161531,0.735725 0.318916,1.481514 0.477752,2.224052 l 0.520847,-6.3824194 2.857628,2.4893438 2.771384,2.4215936 0.209929,-3.1988195 0.205579,-3.1238281 -3.002739,-2.7109931 -3.104749,-2.78987802 z m 0.477752,2.224052 -0.964483,11.805596 -0.835575,10.743563 c 0.389851,2.368628 0.765625,4.758947 1.12513,7.17452 0.222802,1.497006 0.451718,3.134447 0.681289,4.818249 l 0.624132,0.431598 3.114547,2.164129 -0.111018,1.883209 -0.112369,1.907312 -2.932709,-1.984753 c 1.117987,8.705659 2.063944,17.498546 1.873327,18.041325 -0.04686,0.133384 -1.150001,0.6109 -2.451297,1.059782 -1.301283,0.448885 -4.687811,1.25229 -7.525876,1.787086 l -5.160009,0.972919 -3.691599,-5.737425 c -0.621789,-0.966446 -1.124892,-1.733271 -1.589978,-2.4339 l -1.976603,19.932634 0.369642,0.01515 -0.528652,1.593042 -0.6113,6.158475 -0.364313,-0.15943 c 0.0801,0.526541 0.212405,1.059764 0.397904,1.621386 0.531207,1.608294 1.914075,3.306241 2.849434,3.50011 1.358645,0.281648 1.929573,-0.649743 4.333523,-7.06498 l 2.285125,-6.098221 2.202097,-0.3132 c 2.186747,-0.310453 7.612936,-1.572463 10.70225,-2.490368 1.592711,-0.473215 1.613208,-0.470129 1.742944,0.401406 0.197243,1.324996 0.458724,12.323903 0.410584,17.276924 -0.174977,18.00533 -2.774026,30.35633 -6.501736,30.89266 -2.532891,0.3644 -5.839271,-3.99832 -9.881678,-13.0389 -1.978941,-4.42577 -2.49851,-5.10969 -3.908828,-5.13608 -1.331494,-0.0249 -2.044592,0.79192 -2.367001,2.70604 -0.378003,2.24419 0.07391,4.40545 1.700087,8.12839 2.665981,6.10349 5.381154,10.8442 8.119914,14.17847 1.682695,2.04858 4.619322,4.15271 6.178398,4.42828 0.63388,0.11208 1.70072,0.0468 2.370941,-0.14529 7.922675,-2.27038 11.526066,-22.11535 10.110486,-55.68255 l -0.29163,-6.923422 2.36521,-1.225866 c 6.99523,-3.631276 13.42554,-8.93851 17.25982,-14.244901 2.22443,-3.078483 3.66589,-5.873078 5.00017,-9.692098 1.53305,-4.387985 2.01223,-7.818762 1.78956,-12.804728 -0.1309,-2.931202 -0.20294,-3.415089 -0.93238,-6.26334 -1.24106,-4.846007 -2.70123,-8.00615 -5.452,-11.79834 -2.46807,-3.402436 -3.97206,-4.979108 -7.15503,-7.50249 -4.10329,-3.253006 -11.04672,-6.8293165 -12.78226,-6.5843642 -1.618427,0.2287885 -2.490045,2.6312612 -2.044902,5.6371562 0.260044,1.756599 0.821805,3.254432 1.578322,4.207688 0.25937,0.326807 1.95049,1.289209 3.75739,2.138796 9.47525,4.455197 15.83205,11.193568 16.81988,17.829511 1.20051,8.064615 -4.94605,18.117898 -15.33469,25.078727 -2.10327,1.409282 -5.752186,3.4996 -5.852718,3.3539 -0.02541,-0.03686 -0.18404,-1.531569 -0.352198,-3.322826 C 99.034523,62.008287 98.333509,56.119375 97.644448,50.712227 96.005581,37.85184 93.762986,24.778088 91.153416,12.578897 Z M 70.085711,92.752113 c -0.232303,-1.527181 -0.01794,-3.012366 0.670603,-5.082678 l 0.305009,-0.916393 0.159006,-1.608236 -0.958192,-0.03716 -0.730732,7.402538 0.460884,0.201809 z m 0.176421,-7.644539 1.283067,-13.000214 0.843193,-8.082359 c -1.10322,-1.59741 -1.745866,-2.368765 -2.185208,-2.61444 -2.1925,-1.22603 -3.774799,1.614397 -3.168214,5.689239 0.274667,1.8451 0.579517,2.58558 1.996839,4.859093 l 1.057935,1.697266 -0.768273,0.106481 c -0.895187,0.123537 -3.790938,-0.08321 -6.63262,-0.43571 l -1.282207,10.917064 c 2.801568,0.447253 5.724934,0.739406 8.783075,0.860329 z m -8.855488,-0.863581 c -0.340503,-0.05466 -0.680079,-0.11074 -1.016737,-0.169998 l -0.519307,4.23273 0.504755,0.216998 0.502377,0.219977 z m 1.282207,-10.917064 0.649935,-5.534144 2.302099,-18.532375 3.971372,2.401402 3.823601,2.318265 -1.047466,10.044924 c 0.250111,0.36214 0.500731,0.723469 0.80854,1.187171 l 0.984672,-9.92197 3.290589,-30.242998 -4.246628,-3.123134 -4.430998,-3.24371 -4.163958,30.860896 -2.903631,23.647993 c 0.327464,0.04534 0.629735,0.09653 0.961834,0.137151 z M 91.742364,51.522385 C 91.551161,50.033512 91.356408,48.56308 91.159781,47.12089 l -2.599537,-1.802443 0.793118,-10.190326 c -0.15709,-0.95447 -0.315752,-1.907278 -0.477702,-2.853769 l -1.306175,16.430862 3.620998,2.444647 z M 86.618784,20.126153 C 85.969097,16.891221 85.290561,13.712539 84.583141,10.596242 L 84.35023,10.405338 81.317458,7.9190069 78.473482,33.995131 l -3.22576,31.862714 4.484745,2.529516 4.286732,2.421454 1.60293,-20.420191 1.486275,-17.996851 -0.744463,-0.553076 -0.751464,-0.557422 0.857831,-9.537722 z m -5.407511,-4.303989 2.396651,1.88902 2.338852,1.846524 -0.50903,5.490711 -0.523464,5.715876 -2.424931,-1.794741 -2.48648,-1.834056 0.612211,-5.773358 z m -12.767871,12.057351 3.716018,2.585585 3.585916,2.50265 -0.720479,6.433997 -0.741418,6.729159 -3.735482,-2.394227 -3.876653,-2.475648 0.898811,-6.846622 z m 10.858867,5.960898 3.33126,2.359917 3.220761,2.290228 -1.093246,13.072214 -1.152354,14.299931 -3.480229,-2.039051 -3.609089,-2.108864 1.430362,-14.582903 z" />
    </g>
    <g
       id="g221"
       transform="matrix(0.56513242,0,0,0.28532384,10.267937,0.55179002)"
       style="stroke-width:2.49034">
      <path
         style="fill:#d0d0d0;fill-opacity:1;stroke-width:2.49034"
         d="m 100.71972,189.98159 c 0,-0.0549 0.20836,-0.2633 0.46302,-0.46302 0.41965,-0.3291 0.429,-0.31975 0.0999,0.0999 -0.34565,0.44073 -0.56292,0.58089 -0.56292,0.36312 z m 12.77118,-14.37095 c 0.25743,-0.0671 0.61462,-0.0627 0.79375,0.01 0.17913,0.0725 -0.0315,0.12736 -0.46806,0.12197 -0.43656,-0.005 -0.58312,-0.0647 -0.32569,-0.13177 z m 23.23304,-11.87724 c 0.0127,-0.30823 0.0754,-0.37092 0.15985,-0.15985 0.0764,0.19099 0.067,0.4192 -0.0209,0.50712 -0.0879,0.0879 -0.15046,-0.0684 -0.13897,-0.34727 z m -54.969534,-7.51858 c 0,-0.94588 0.04802,-1.33283 0.106714,-0.85989 0.05869,0.47294 0.05869,1.24685 0,1.71979 -0.05869,0.47294 -0.106714,0.086 -0.106714,-0.8599 z m 47.097964,-0.66145 c 0.001,-1.01865 0.049,-1.40295 0.10627,-0.854 0.0573,0.54895 0.0563,1.38239 -0.002,1.85208 -0.0584,0.4697 -0.10531,0.0206 -0.10414,-0.99808 z m 39.88615,0.50711 c 0.0127,-0.30822 0.0754,-0.37091 0.15985,-0.15985 0.0764,0.191 0.067,0.4192 -0.0209,0.50712 -0.0879,0.0879 -0.15046,-0.0683 -0.13897,-0.34727 z m -78.845828,-5.55624 c 0.0127,-0.30823 0.07539,-0.37092 0.159851,-0.15986 0.07643,0.191 0.06703,0.4192 -0.02088,0.50712 -0.08792,0.0879 -0.150453,-0.0683 -0.138965,-0.34726 z m 15.923898,-13.79386 c 0.40218,-0.0608 0.99749,-0.0592 1.32291,0.004 0.32542,0.0628 -0.004,0.11256 -0.73124,0.11058 -0.7276,-0.002 -0.99386,-0.0534 -0.59167,-0.11419 z m 5.81719,0.007 c 0.25466,-0.0665 0.67138,-0.0665 0.92604,0 0.25466,0.0666 0.0463,0.12101 -0.46302,0.12101 -0.50932,0 -0.71768,-0.0545 -0.46302,-0.12101 z"
         id="path237" />
      <path
         style="fill:#b9b9b9;fill-opacity:1;stroke-width:2.49034"
         d="m 128.82694,158.06691 c 0,-0.50933 0.0545,-0.71768 0.121,-0.46302 0.0665,0.25466 0.0665,0.67138 0,0.92604 -0.0665,0.25466 -0.121,0.0463 -0.121,-0.46302 z m -0.01,-4.89479 c 0.005,-0.43657 0.0647,-0.58313 0.13177,-0.3257 0.0671,0.25743 0.0627,0.61462 -0.01,0.79375 -0.0725,0.17913 -0.12737,-0.0315 -0.12197,-0.46805 z m -24.45938,-16.44711 c 0.1819,-0.0734 0.47956,-0.0734 0.66146,0 0.1819,0.0734 0.0331,0.13346 -0.33073,0.13346 -0.3638,0 -0.51263,-0.0601 -0.33073,-0.13346 z"
         id="path235" />
      <path
         style="fill:#a3a3a3;fill-opacity:1;stroke-width:2.49034"
         d="m 117.33886,183.55075 c 0.19099,-0.0764 0.4192,-0.067 0.50712,0.0209 0.0879,0.0879 -0.0683,0.15045 -0.34727,0.13896 -0.30822,-0.0127 -0.37092,-0.0754 -0.15985,-0.15985 z m 11.48808,-23.89634 c 0,-0.50933 0.0545,-0.71768 0.121,-0.46302 0.0665,0.25466 0.0665,0.67138 0,0.92604 -0.0665,0.25466 -0.121,0.0463 -0.121,-0.46302 z m -0.0196,-7.67292 c 0,-0.3638 0.06,-0.51263 0.13345,-0.33073 0.0734,0.1819 0.0734,0.47956 0,0.66146 -0.0734,0.1819 -0.13345,0.0331 -0.13345,-0.33073 z M 101.46386,128.782 c 0.191,-0.0764 0.4192,-0.067 0.50712,0.0209 0.0879,0.0879 -0.0683,0.15045 -0.34727,0.13896 -0.30822,-0.0127 -0.37092,-0.0754 -0.15985,-0.15985 z"
         id="path233" />
      <path
         style="fill:#8c8c8c;fill-opacity:1;stroke-width:2.49034"
         d="m 120.0343,218.82118 c 0,-0.0549 0.20836,-0.2633 0.46302,-0.46303 0.41965,-0.3291 0.42901,-0.31974 0.0999,0.0999 -0.34564,0.44073 -0.56292,0.58089 -0.56292,0.36313 z m 16.68964,-56.93986 c 0.0127,-0.30823 0.0754,-0.37092 0.15985,-0.15986 0.0764,0.191 0.067,0.41921 -0.0209,0.50712 -0.0879,0.0879 -0.15046,-0.0683 -0.13897,-0.34726 z m -7.9375,-1.05834 c 0.0127,-0.30822 0.0754,-0.37091 0.15985,-0.15985 0.0764,0.191 0.067,0.4192 -0.0209,0.50712 -0.0879,0.0879 -0.15046,-0.0684 -0.13897,-0.34727 z m 0.0209,-9.89982 c 0,-0.3638 0.06,-0.51263 0.13345,-0.33073 0.0734,0.1819 0.0734,0.47956 0,0.66146 -0.0734,0.1819 -0.13345,0.0331 -0.13345,-0.33073 z m -46.852137,-3.32934 c 0.0127,-0.30823 0.07539,-0.37092 0.159851,-0.15985 0.07643,0.19099 0.06703,0.41919 -0.02088,0.50711 -0.08792,0.0879 -0.150453,-0.0684 -0.138965,-0.34726 z M 114.16386,136.7195 c 0.19099,-0.0764 0.4192,-0.067 0.50712,0.0209 0.0879,0.0879 -0.0683,0.15045 -0.34727,0.13896 -0.30822,-0.0127 -0.37092,-0.0754 -0.15985,-0.15985 z m -11.90625,-7.9375 c 0.191,-0.0764 0.4192,-0.067 0.50712,0.0209 0.0879,0.0879 -0.0683,0.15045 -0.34727,0.13896 -0.30822,-0.0127 -0.37092,-0.0754 -0.15985,-0.15985 z m 12.96458,0 c 0.191,-0.0764 0.4192,-0.067 0.50712,0.0209 0.0879,0.0879 -0.0683,0.15045 -0.34726,0.13896 -0.30823,-0.0127 -0.37092,-0.0754 -0.15986,-0.15985 z m 5.18385,-35.339568 -0.50403,-0.595313 0.59531,0.504028 c 0.32742,0.277215 0.59532,0.545106 0.59532,0.595313 0,0.211733 -0.21294,0.05542 -0.6866,-0.504028 z"
         id="path231" />
      <path
         style="fill:#767676;fill-opacity:1;stroke-width:2.49034"
         d="m 116.01594,183.55075 c 0.191,-0.0764 0.4192,-0.067 0.50712,0.0209 0.0879,0.0879 -0.0683,0.15045 -0.34726,0.13896 -0.30823,-0.0127 -0.37092,-0.0754 -0.15986,-0.15985 z m 20.72889,-33.15676 c 0,-0.3638 0.06,-0.51263 0.13345,-0.33073 0.0734,0.1819 0.0734,0.47956 0,0.66146 -0.0734,0.1819 -0.13345,0.0331 -0.13345,-0.33073 z"
         id="path229" />
      <path
         style="fill:#606060;fill-opacity:1;stroke-width:2.49034"
         d="m 93.617745,170.50232 c 0,-0.3638 0.06006,-0.51263 0.133453,-0.33073 0.0734,0.18191 0.0734,0.47956 0,0.66146 -0.0734,0.1819 -0.133453,0.0331 -0.133453,-0.33073 z M 46.44639,167.12889 c -0.329107,-0.41965 -0.319749,-0.42901 0.09989,-0.0999 0.254661,0.19972 0.463021,0.40808 0.463021,0.46302 0,0.21776 -0.217272,0.0776 -0.562916,-0.36312 z m 90.27755,-6.57049 c 0.0127,-0.30822 0.0754,-0.37092 0.15985,-0.15985 0.0764,0.19099 0.067,0.4192 -0.0209,0.50712 -0.0879,0.0879 -0.15046,-0.0684 -0.13897,-0.34727 z m 0,-9.26041 c 0.0127,-0.30823 0.0754,-0.37092 0.15985,-0.15986 0.0764,0.191 0.067,0.4192 -0.0209,0.50712 -0.0879,0.0879 -0.15046,-0.0684 -0.13897,-0.34726 z m 35.01126,-5.99723 -0.50403,-0.59531 0.59532,0.50403 c 0.55944,0.47366 0.71576,0.68659 0.50403,0.68659 -0.0502,0 -0.3181,-0.26789 -0.59532,-0.59531 z m -56.26496,-8.57575 c 0.1819,-0.0734 0.47956,-0.0734 0.66146,0 0.1819,0.0734 0.0331,0.13346 -0.33073,0.13346 -0.3638,0 -0.51263,-0.0601 -0.33073,-0.13346 z M 103.76243,99.064827 c 0.26339,-0.291042 0.53842,-0.529167 0.61118,-0.529167 0.0728,0 -0.0832,0.238125 -0.3466,0.529167 -0.26339,0.291042 -0.53842,0.529167 -0.61118,0.529167 -0.0728,0 0.0832,-0.238125 0.3466,-0.529167 z"
         id="path227" />
      <path
         style="fill:#494949;fill-opacity:1;stroke-width:2.49034"
         d="m 104.1593,186.54201 c 0,-0.0549 0.20836,-0.2633 0.46302,-0.46302 0.41965,-0.32911 0.42901,-0.31975 0.0999,0.0999 -0.34564,0.44073 -0.56292,0.58088 -0.56292,0.36312 z M 52.00264,161.57264 c -0.329108,-0.41965 -0.319749,-0.42901 0.0999,-0.0999 0.254661,0.19972 0.46302,0.40808 0.46302,0.46302 0,0.21776 -0.217272,0.0776 -0.562915,-0.36312 z m 113.80458,0.36312 c 0,-0.0549 0.20836,-0.2633 0.46302,-0.46302 0.41964,-0.32911 0.429,-0.31975 0.0999,0.0999 -0.34564,0.44073 -0.56291,0.58088 -0.56291,0.36312 z m -29.03745,-2.67823 c 0.003,-0.58208 0.0571,-0.78905 0.12041,-0.45993 0.0633,0.32911 0.0609,0.80536 -0.005,1.05833 -0.0662,0.25297 -0.11801,-0.0163 -0.11507,-0.5984 z m -0.0249,-7.01146 c 0,-0.3638 0.0601,-0.51263 0.13346,-0.33072 0.0734,0.1819 0.0734,0.47955 0,0.66145 -0.0734,0.1819 -0.13346,0.0331 -0.13346,-0.33073 z M 81.955193,149.4459 c 0.0127,-0.30822 0.07539,-0.37092 0.159851,-0.15985 0.07643,0.19099 0.06703,0.4192 -0.02088,0.50712 -0.08792,0.0879 -0.150453,-0.0684 -0.138965,-0.34727 z m 66.604497,-15.63681 c 0.191,-0.0764 0.4192,-0.067 0.50712,0.0209 0.0879,0.0879 -0.0684,0.15045 -0.34727,0.13897 -0.30822,-0.0127 -0.37091,-0.0754 -0.15985,-0.15985 z M 98.206178,93.508577 c 0.26339,-0.291041 0.538422,-0.529166 0.611182,-0.529166 0.07276,0 -0.08321,0.238125 -0.346598,0.529166 -0.263391,0.291042 -0.538422,0.529167 -0.611183,0.529167 -0.07276,0 0.08321,-0.238125 0.346599,-0.529167 z"
         id="path225" />
    </g>
  </g>
</svg>
